<svg width="50" height="50" fill="none" xmlns="http://www.w3.org/2000/svg"><path d="M47.95 37.005l-5.177-2.934V28.94a.977.977 0 00-1.953 0v4.026l-2.27-1.286a.976.976 0 10-.963 1.699l2.293 1.3-13.903 8.026v-6.223c5.898-.497 10.546-5.457 10.546-11.481 0-1.749-.392-3.408-1.092-4.895l5.39-3.11v4.001a.977.977 0 001.952 0v-5.693a.978.978 0 00-.488-.846L25.977 5.041V.977a.977.977 0 00-1.954 0V5.04L7.715 14.457a.978.978 0 00-.488.846v5.986a.977.977 0 001.953 0v-4.293l5.385 3.12A11.458 11.458 0 0013.477 25c0 6.025 4.648 10.984 10.546 11.481v6.223l-13.857-8 1.482-.86a.978.978 0 00-.979-1.69l-1.49.864v-4.6a.977.977 0 00-1.952 0v5.732l-4.32 2.505a.977.977 0 10.979 1.69l4.332-2.511 16.294 9.407a.98.98 0 00.976 0l16.364-9.447 5.135 2.91a.976.976 0 10.963-1.7zM10.155 15.303l13.868-8.007v3.055a.977.977 0 001.954 0V7.296l13.867 8.006-5.393 3.113c-2.085-2.983-5.543-4.938-9.451-4.938-3.911 0-7.373 1.958-9.457 4.948l-5.388-3.122zM25 34.57c-5.277 0-9.57-4.293-9.57-9.57s4.293-9.57 9.57-9.57 9.57 4.293 9.57 9.57-4.293 9.57-9.57 9.57zm24.714-10.26a.984.984 0 00-.69-.287.984.984 0 00-.691.287.984.984 0 00-.286.69.98.98 0 00.286.69.984.984 0 00.69.287.984.984 0 00.69-.287A.984.984 0 0050 25a.984.984 0 00-.286-.69z" fill="#FBBC3B"/><path d="M46.047 24.31a.982.982 0 00-.69-.287.986.986 0 00-.691.287.984.984 0 00-.286.69c0 .257.104.508.286.69a.98.98 0 001.667-.69.98.98 0 00-.286-.69zm-3.56 0a.984.984 0 00-.69-.287.984.984 0 00-.69.287.984.984 0 00-.287.69c0 .257.105.509.286.69a.984.984 0 00.69.287.984.984 0 00.691-.287.984.984 0 00.286-.69.984.984 0 00-.286-.69zm-33.593 0a.984.984 0 00-.69-.287.984.984 0 00-.691.287.984.984 0 00-.286.69.98.98 0 00.286.69.984.984 0 00.69.287.984.984 0 00.69-.287.984.984 0 00.287-.69.984.984 0 00-.286-.69zm-3.666 0a.986.986 0 00-.692-.287.986.986 0 00-.69.287.984.984 0 00-.286.69.98.98 0 00.286.69.986.986 0 00.69.287.986.986 0 00.692-.287.984.984 0 00.286-.69.984.984 0 00-.286-.69zm-3.561 0a.984.984 0 00-.69-.287.984.984 0 00-.69.287A.984.984 0 000 25a.98.98 0 00.286.69.984.984 0 00.69.287.984.984 0 00.691-.287.984.984 0 00.286-.69.984.984 0 00-.286-.69z" fill="#FBBC3B"/><path d="M21.857 23.12l1.14-1.14a.978.978 0 00-.69-1.668H19.1a.977.977 0 000 1.954h.848l-1.067 1.067a.978.978 0 00.69 1.667h1.595a1.368 1.368 0 010 2.734 1.369 1.369 0 01-1.367-1.367.977.977 0 00-1.953 0 3.323 3.323 0 003.32 3.32 3.323 3.323 0 003.32-3.32 3.329 3.329 0 00-2.63-3.248zm5.61-2.807h-.977a.974.974 0 00-.976.976v7.422c0 .539.437.977.976.977h.977A4.692 4.692 0 0032.154 25a4.694 4.694 0 00-4.687-4.688zm0 7.421v-5.468A2.737 2.737 0 0130.2 25a2.738 2.738 0 01-2.734 2.734zM8.209 0H.977A.977.977 0 000 .977v7.232a.977.977 0 001.953 0V1.953H8.21A.977.977 0 008.21 0zm40.814 0h-7.232a.977.977 0 000 1.953h6.256V8.21a.977.977 0 001.953 0V.977A.977.977 0 0049.023 0zm0 40.815a.977.977 0 00-.976.976v6.256H41.79a.977.977 0 000 1.953h7.232c.54 0 .977-.438.977-.977v-7.232a.976.976 0 00-.977-.976zM8.209 48.047H1.953V41.79a.977.977 0 00-1.953 0v7.232c0 .54.438.977.977.977h7.232a.977.977 0 000-1.953z" fill="#6E502E"/></svg>