<svg width="100" height="100" fill="none" xmlns="http://www.w3.org/2000/svg"><path d="M40.76 36.257a.979.979 0 00.485-1.643.979.979 0 00-.959-.258 17.619 17.619 0 00-13.365 17.118.98.98 0 001.96 0 15.664 15.664 0 0111.88-15.217z" fill="#FBBC3B"/><path d="M78.874 57.356H66.131v-5.882a21.4 21.4 0 00-3.8-12.213l.532-6.632a2.944 2.944 0 00-1.056-2.502 27.052 27.052 0 00-9.617-5.022 2.917 2.917 0 00-2.82.732l-4.223 4.1c-.19-.005-.386-.03-.582-.03C32.661 29.923 23.014 39.57 23 51.475V69.12A5.887 5.887 0 0028.881 75H59.27a6.861 6.861 0 006.783-5.882h8.9v2.941A2.94 2.94 0 0077.893 75h.98a2.94 2.94 0 002.94-2.94V60.295a2.939 2.939 0 00-2.939-2.94zM50.741 27.237a.944.944 0 01.913-.248 25.121 25.121 0 018.914 4.658.978.978 0 01.34.83l-.365 4.55c-.244-.267-.471-.545-.729-.802a21.382 21.382 0 00-12.087-6.06l3.014-2.928zM34.763 73.04h-5.881a3.92 3.92 0 01-3.921-3.92v-8.823a.98.98 0 01.98-.98h.753a.98.98 0 01.86.51 21.426 21.426 0 008.656 8.693.969.969 0 01.513.857v2.684a.98.98 0 01-.98.98h-.98zm29.407-4.9a4.908 4.908 0 01-4.901 4.901H38.503c.116-.313.177-.645.18-.98v-2.684a2.909 2.909 0 00-1.575-2.6 19.8 19.8 0 01-7.835-7.89 2.94 2.94 0 00-2.579-1.528h-.753a2.912 2.912 0 00-.98.18v-6.062c0-10.828 8.777-19.605 19.605-19.605 10.828 0 19.604 8.775 19.604 19.603V68.14zm1.961-.981v-7.843h2.941v1.961a.98.98 0 001.96 0v-1.96h3.92v7.842h-8.82zm13.723 4.901a.98.98 0 01-.98.98h-.98a.98.98 0 01-.98-.98V59.316h1.961a.98.98 0 01.98.98V72.06h-.001z" fill="#6E502E"/><path d="M44.565 35.79a.98.98 0 100-1.96.98.98 0 000 1.96zm9.803 31.367a3.92 3.92 0 107.841 0 3.92 3.92 0 00-7.84 0zm5.882 0a1.96 1.96 0 11-3.921.001 1.96 1.96 0 013.92 0z" fill="#FBBC3B"/><path d="M44.565 41.672c-5.955 0-10.783 4.828-10.783 10.783 0 5.955 4.828 10.783 10.783 10.783 5.955 0 10.783-4.828 10.783-10.783-.007-5.953-4.83-10.776-10.783-10.783zm0 19.604a8.822 8.822 0 01-8.822-8.822 8.822 8.822 0 018.822-8.822 8.822 8.822 0 018.822 8.822 8.83 8.83 0 01-8.822 8.822z" fill="#6E502E"/><circle cx="50" cy="50" r="49.5" stroke="#E8E8E8"/><path d="M85 7h-.046A7.977 7.977 0 0077 15a8 8 0 108-8z" fill="#fff"/><path d="M85 7h-.046A7.977 7.977 0 0077 15a8 8 0 108-8zm-1.25 11.477l-3.181-3.159 1.295-1.272 1.886 1.863 4.386-4.386 1.296 1.273-5.682 5.681z" fill="#FBBC3B"/></svg>