<svg width="45" height="50" fill="none" xmlns="http://www.w3.org/2000/svg"><path d="M44.154 30.356l-3.5-6.874a.978.978 0 00-.871-.534H4.476a.978.978 0 00-.87.534l-3.5 6.874a.977.977 0 00.871 1.421h1.22v17.246c0 .54.438.977.977.977h37.91c.54 0 .976-.438.976-.977V31.777h1.223a.977.977 0 00.871-1.42zm-4.97-5.454l2.505 4.92H26.23l-2.506-4.92h15.461zm-34.108 0h15.46l-2.504 4.92H2.572l2.504-4.92zm35.03 23.144H23.107V42.63a.977.977 0 00-1.953 0v5.415H4.15v-16.27h14.48a.978.978 0 00.87-.534l1.653-3.245v5.86a.977.977 0 001.953 0v-5.86l1.653 3.245a.978.978 0 00.87.534h14.477v16.27z" fill="#6E502E"/><path d="M13.775 42.695H8.212a.976.976 0 100 1.954h5.563a.977.977 0 100-1.954z" fill="#6E502E"/><path d="M22.13 20.075c5.528 0 10.026-4.504 10.026-10.039C32.156 4.502 27.66 0 22.13 0 16.6 0 12.1 4.502 12.1 10.036c.001 5.535 4.5 10.04 10.03 10.04zm0-18.12c4.45 0 8.072 3.625 8.072 8.081 0 4.458-3.621 8.085-8.072 8.085-4.453 0-8.075-3.627-8.075-8.085 0-4.456 3.622-8.082 8.075-8.082z" fill="#FBBC3B"/><path d="M17.75 11.502l2.6 2.204a.975.975 0 001.381-.12l4.894-5.849a.977.977 0 00-1.498-1.254l-4.263 5.095-1.85-1.568a.978.978 0 10-1.264 1.492zm-14.815-.488h4.228a.976.976 0 100-1.953H2.935a.976.976 0 100 1.953zM2.48 4.215l4.228 2.23a.977.977 0 10.912-1.729l-4.23-2.23a.977.977 0 10-.91 1.729zm-.409 12.962a.977.977 0 001.32.409l4.227-2.227a.977.977 0 00-.91-1.728L2.48 15.857a.977.977 0 00-.409 1.32zm35.023-6.163h4.228a.976.976 0 100-1.953h-4.228a.976.976 0 100 1.953zm.002-4.456a.97.97 0 00.455-.114l4.227-2.23a.977.977 0 10-.912-1.728l-4.227 2.23a.977.977 0 00.456 1.842zm-.456 8.802l4.227 2.226a.976.976 0 001.32-.41.976.976 0 00-.41-1.319l-4.227-2.226a.976.976 0 10-.91 1.728z" fill="#FBBC3B"/><path d="M22.13 37.267a.976.976 0 00-.977.976v.006c0 .54.438.975.977.975a.98.98 0 000-1.957z" fill="#6E502E"/></svg>