<svg width="61" height="60" fill="none" xmlns="http://www.w3.org/2000/svg"><path d="M40.547 37.383c-.647 0-1.172.525-1.172 1.172v8.086a5.867 5.867 0 01-5.86 5.859H20.864c-.647 0-1.172.524-1.172 1.17L19.69 56l-2.797-2.797a1.171 1.171 0 00-1.075-.704H8.203a5.866 5.866 0 01-5.86-5.86V28.594c0-3.231 2.63-5.86 5.86-5.86H20.04a1.172 1.172 0 000-2.343H8.203C3.68 20.39 0 24.07 0 28.594V46.64c0 4.523 3.68 8.203 8.203 8.203h7.015l4.813 4.813a1.172 1.172 0 002-.828l.003-3.985h11.482c4.523 0 8.203-3.68 8.203-8.203v-8.086c0-.647-.525-1.172-1.172-1.172z" fill="#FBBC3B"/><path d="M42.967 0H40c-9.392 0-17.032 7.64-17.032 17.033s7.64 17.032 17.033 17.032h2.966c1.466 0 2.917-.186 4.323-.554l4.382 4.38a1.172 1.172 0 002-.83v-6.78a17.2 17.2 0 004.478-5.52A16.85 16.85 0 0060 17.034C60 7.641 52.36 0 42.967 0zm8.828 28.774a1.172 1.172 0 00-.467.936v4.524l-2.867-2.866a1.173 1.173 0 00-1.173-.292 14.685 14.685 0 01-4.321.645H40c-8.1 0-14.69-6.589-14.69-14.689S31.902 2.344 40.002 2.344h2.966c8.099 0 14.688 6.59 14.688 14.69 0 4.655-2.136 8.935-5.861 11.74z" fill="#FBBC3B"/><path d="M46.761 12.823a4.972 4.972 0 00-4.6-4.6 4.921 4.921 0 00-3.734 1.322 4.978 4.978 0 00-1.576 3.627 1.172 1.172 0 002.343 0c0-.734.296-1.413.833-1.914a2.62 2.62 0 014.397 1.726 2.605 2.605 0 01-2.036 2.743A2.217 2.217 0 0040.64 17.9v2.814a1.172 1.172 0 002.343 0v-2.722a4.933 4.933 0 003.777-5.17zm-4.12 11.7a1.18 1.18 0 00-.828-.344c-.309 0-.611.126-.829.344a1.18 1.18 0 00-.343.828c0 .31.125.612.343.83a1.178 1.178 0 001.657 0c.218-.22.343-.52.343-.83 0-.308-.125-.61-.343-.828zM32.227 36.328H7.5a1.172 1.172 0 000 2.344h24.727a1.172 1.172 0 000-2.344zm.828 6.906a1.18 1.18 0 00-.828-.343 1.18 1.18 0 00-.829.343 1.18 1.18 0 00-.343.828c0 .309.125.611.343.829.218.218.52.343.829.343.308 0 .61-.125.828-.343a1.18 1.18 0 00.343-.828 1.18 1.18 0 00-.343-.829zm-5.437-.344H7.5a1.172 1.172 0 000 2.344h20.118a1.172 1.172 0 000-2.343zM24.61 29.766H7.5a1.172 1.172 0 000 2.343h17.11a1.172 1.172 0 000-2.343z" fill="#FBBC3B"/></svg>