<svg width="52" height="60" fill="none" xmlns="http://www.w3.org/2000/svg"><path d="M51.396 41.26c-.926-2.385-3.464-3.216-6.964-2.277-.02.004-.038.01-.057.016L33.054 42.65c-.292-1.587-1.678-3.132-4-3.226l-2.63-.106a1.172 1.172 0 10-.096 2.342l2.631.107c1.233.05 1.802.814 1.809 1.502.002.172-.03.332-.092.476a.997.997 0 00-.053.107c-.246.43-.794.7-1.571.747l-8.657.523a1.172 1.172 0 10.142 2.339l8.657-.523c1.576-.095 2.648-.764 3.267-1.633l12.605-4.065c1.303-.346 3.543-.681 4.143.867.052.15-.06.296-.33.432l-15.65 7.524c-2.655.958-8.53 1.352-13.257 1.668-2.093.141-4.07.273-5.565.439a1.135 1.135 0 00-.316.08L2.344 57.08v-9.85h4.763c.647 0 1.172-.525 1.172-1.172a5.07 5.07 0 011.555-3.636c.921-.885 2.103-1.345 3.327-1.296l2.63.107a1.173 1.173 0 00.095-2.343l-2.63-.106c-1.867-.077-3.658.616-5.045 1.947a7.437 7.437 0 00-2.18 4.154h-4.86C.525 44.885 0 45.41 0 46.057v12.77a1.174 1.174 0 001.617 1.084l13.21-5.43c1.427-.153 3.311-.278 5.301-.412 5.163-.345 11.016-.737 13.963-1.828.034-.013.068-.027.1-.043l15.71-7.553a.125.125 0 00.013-.007c1.61-.797 1.896-2.31 1.482-3.378z" fill="#FBBC3B"/><path d="M21.107 39.105a1.172 1.172 0 100 2.344 1.172 1.172 0 000-2.344zm21.99-31.099c-.69 0-1.347.143-1.944.401C40.485 3.663 36.4 0 31.474 0h-9.038c-4.927 0-9.012 3.663-9.68 8.407a4.888 4.888 0 00-1.944-.4 4.927 4.927 0 00-4.922 4.921v.106c0 1.741.942 3.264 2.344 4.09v3.024c0 4.66 3.036 8.622 7.235 10.014l-1.483 3.611a1.171 1.171 0 001.085 1.618h5.157c.376 0 .729-.18.949-.484l3.05-4.21h5.458l3.05 4.21c.22.304.573.484.95.484h5.156a1.173 1.173 0 001.085-1.618l-1.483-3.611c4.198-1.392 7.236-5.355 7.236-10.014v-3.023a4.747 4.747 0 002.343-4.091v-.106a4.933 4.933 0 00-4.925-4.922zm-23.468 25.04h-2.81l.984-2.396c.322.03.65.046.979.046h2.55l-1.703 2.35zm14.652 0l-1.703-2.35h2.551c.33 0 .657-.016.979-.046l.983 2.397h-2.81zm11.394-20.011a2.406 2.406 0 01-2.402 2.402 1.172 1.172 0 000 2.344l.058-.001v2.37c0 4.523-3.68 8.202-8.203 8.202H18.78c-4.523 0-8.203-3.68-8.203-8.203v-2.37l.059.002a1.172 1.172 0 000-2.344 2.406 2.406 0 01-2.402-2.402v-.106a2.581 2.581 0 012.578-2.578 2.581 2.581 0 012.578 2.578v6.751a5.866 5.866 0 005.86 5.86h2.14a1.172 1.172 0 000-2.344h-2.14a3.52 3.52 0 01-3.516-3.516v-6.75a4.89 4.89 0 00-.733-2.58v-.572c0-4.1 3.335-7.434 7.435-7.434h9.038c4.1 0 7.435 3.335 7.435 7.434v.572a4.892 4.892 0 00-.733 2.58v6.75a3.52 3.52 0 01-3.516 3.516h-3.75a1.172 1.172 0 000 2.344h3.75a5.867 5.867 0 005.86-5.86v-6.75a2.581 2.581 0 012.578-2.579 2.581 2.581 0 012.578 2.578l-.001.106z" fill="#FBBC3B"/><path d="M33.347 12.51a1.18 1.18 0 00-.829-.344c-.308 0-.61.126-.828.344a1.18 1.18 0 00-.344.828c0 .309.126.61.344.829.218.218.52.343.828.343.309 0 .61-.125.829-.343a1.18 1.18 0 00.343-.829c0-.308-.125-.61-.343-.828zm-11.128 0a1.18 1.18 0 00-.829-.344c-.308 0-.61.126-.828.344a1.18 1.18 0 00-.344.828c0 .309.126.61.344.829.218.218.52.343.828.343.308 0 .61-.125.829-.343a1.18 1.18 0 00.343-.829c0-.308-.125-.61-.343-.828zm4.957 11.03a1.181 1.181 0 00-.829-.344c-.308 0-.61.126-.828.344a1.18 1.18 0 00-.344.828c0 .308.126.61.344.829.218.218.52.343.828.343.308 0 .61-.125.829-.343a1.18 1.18 0 00.343-.829c0-.308-.125-.61-.343-.828z" fill="#FBBC3B"/></svg>