<svg width="100" height="100" fill="none" xmlns="http://www.w3.org/2000/svg"><circle cx="50" cy="50" r="49.5" stroke="#E8E8E8"/><path d="M85 7h-.046A7.977 7.977 0 0077 15a8 8 0 108-8z" fill="#fff"/><path d="M85 7h-.046A7.977 7.977 0 0077 15a8 8 0 108-8zm-1.25 11.477l-3.181-3.159 1.295-1.272 1.886 1.863 4.386-4.386 1.296 1.273-5.682 5.681zM35.254 41.635c.54 0 .977-.438.977-.977V33.98a.977.977 0 00-1.953 0v6.678c0 .54.436.977.976.977zm.004-9.821a.977.977 0 110-1.953.977.977 0 010 1.953z" fill="#FBBC3B"/><path d="M25 35.26C25 29.603 29.602 25 35.258 25c2.34 0 4.502.788 6.23 2.114h30.617a3.558 3.558 0 013.554 3.554v35.525a3.558 3.558 0 01-3.554 3.554h-3.098v1.7A3.558 3.558 0 0165.453 75H33.919a3.558 3.558 0 01-3.554-3.554V57.901a.977.977 0 011.954 0v13.545a1.6 1.6 0 001.6 1.6h31.533a1.6 1.6 0 001.6-1.6v-1.699H40.571a3.558 3.558 0 01-3.554-3.554V45.37c-.572.1-1.16.15-1.759.15-1.022 0-2.009-.15-2.94-.429v3.983a.977.977 0 01-1.954 0v-4.797C27.172 42.533 25 39.146 25 35.26zm13.97 30.933c0 .883.718 1.6 1.6 1.6h31.535a1.6 1.6 0 001.6-1.6V30.668a1.6 1.6 0 00-1.6-1.6H43.432a10.204 10.204 0 012.075 5.758h21.63c.539 0 .976.438.976.977v4.124c0 .54-.437.977-.977.977H44.54a.973.973 0 01-.591-.2 10.323 10.323 0 01-4.979 4.12l.001 21.37zm6.546-29.413v2.17h20.645v-2.17H45.516zm-10.258 6.786c4.58 0 8.305-3.727 8.305-8.307s-3.726-8.307-8.305-8.307c-4.58 0-8.305 3.727-8.305 8.307s3.726 8.307 8.305 8.307z" fill="#6E502E"/><path d="M31.341 54.446a.986.986 0 00.913-.633.986.986 0 00-.294-1.1.989.989 0 00-1.135-.074.982.982 0 00-.435 1.05.987.987 0 00.951.757z" fill="#6E502E"/><path d="M44.54 46.254h22.598a.977.977 0 000-1.954h-22.6a.977.977 0 000 1.954zm0 4.631h22.598a.977.977 0 000-1.953h-22.6a.977.977 0 000 1.953zm0 4.632h22.598a.977.977 0 000-1.953h-22.6a.977.977 0 000 1.953zm0 4.633h22.598a.977.977 0 000-1.954h-22.6a.977.977 0 000 1.953z" fill="#FBBC3B"/></svg>