<svg width="24" height="25" fill="none" xmlns="http://www.w3.org/2000/svg"><path d="M24 5.532V18.47c-.03.168-.058.336-.09.503-.415 2.203-1.662 3.746-3.727 4.595-.54.222-1.141.294-1.714.434H5.534c-.45-.095-.912-.148-1.345-.29-2.532-.831-4.175-3.086-4.182-5.75C-.004 13.988 0 10.01.005 6.035.007 4.757.36 3.58 1.115 2.546 2.36.845 4.052.004 6.156.002 10.02 0 13.886 0 17.752.005c.404.001.815.019 1.212.091 2.217.404 3.764 1.663 4.61 3.745.216.534.287 1.126.425 1.691zM12.003 7c-2.743-.004-4.972 2.218-5.002 4.987-.03 2.73 2.243 5.01 4.998 5.016 2.74.005 4.974-2.22 5.003-4.988.029-2.73-2.244-5.01-4.999-5.015zm6.488-.005A1.5 1.5 0 0020 5.499a1.514 1.514 0 00-1.49-1.497c-.808-.012-1.49.658-1.501 1.478a1.491 1.491 0 001.483 1.515z" fill="#fff"/></svg>