<svg width="123" height="70" fill="none" xmlns="http://www.w3.org/2000/svg"><path d="M11.549 49.972v10.576H9.61v-6.943l-3.265 4.567H5.213l-3.265-4.567v6.943H0V49.972h1.527l4.247 5.96 4.264-5.96h1.51zm15.078 0h1.937v5.917c0 1.36-.485 2.526-1.451 3.492-.966.967-2.137 1.453-3.508 1.453-1.37 0-2.542-.486-3.508-1.453-.966-.966-1.452-2.132-1.452-3.492v-5.917h1.948v5.917c0 .826.297 1.533.886 2.116.588.583 1.3.874 2.126.874.836 0 1.549-.291 2.137-.874.588-.583.885-1.29.885-2.116v-5.917zm16.228 6.942l2.72 3.628h-2.3l-2.433-3.266h-3.19v3.266h-1.948V49.967h5.548c1.02 0 1.889.356 2.617 1.074.729.718 1.09 1.576 1.09 2.586 0 .718-.189 1.366-.572 1.949a3.693 3.693 0 01-1.527 1.333l-.005.005zm-1.662-1.511c.501 0 .933-.173 1.284-.513.35-.345.529-.761.529-1.258 0-.496-.178-.917-.53-1.263a1.772 1.772 0 00-1.283-.523h-3.54v3.552h3.54v.005zm16.211-5.43l4.22 10.575H59.66l-.955-2.376H53.55l-.955 2.376h-1.981l4.236-10.576h2.558-.005zm-3.146 6.429h3.734l-1.872-4.675-1.862 4.675zm11.764-6.43h9.347v1.814h-3.707v8.756h-1.938v-8.756h-3.702v-1.814zm23.53 5.005c.404.188.782.502 1.144.939.356.432.534.966.534 1.603 0 .837-.297 1.55-.885 2.138a2.897 2.897 0 01-2.126.885h-6.395V49.967h6.109c.798 0 1.473.28 2.034.837.561.561.842 1.236.842 2.035 0 .486-.135.912-.4 1.285-.264.372-.55.653-.852.847l-.005.006zm-.756-1.982c0-.35-.124-.648-.372-.89a1.214 1.214 0 00-.885-.362h-3.826v2.494h3.826c.35 0 .647-.119.89-.362s.362-.534.362-.88h.005zm-.939 5.777c.394 0 .729-.14 1.004-.416a1.37 1.37 0 00.415-1.004c0-.394-.14-.724-.415-.999-.275-.27-.61-.41-1.004-.41h-4.144v2.829h4.144zm18.554-6.991h-6.563v2.559h5.429v1.83h-5.428v2.542h6.562v1.83h-8.516V49.967h8.516v1.814zm16.093-1.814l-4.582 4.842L123 60.542h-2.434l-3.918-4.4-1.392 1.485v2.92h-1.948V49.973h1.948v5.08l4.808-5.08h2.434l.006-.005zM30.292 64.699v5.296h-.535v-4.233l-2.077 3.563h-.265l-2.077-3.541v4.21h-.535V64.7h.46l2.298 3.924 2.277-3.924h.46-.006zm17.177 4.81v.486h-3.74v-5.296h3.627v.486h-3.07v1.884h2.735v.475h-2.736v1.965h3.184zm16.363-2.246c.345.076.615.227.804.448.189.227.286.513.286.864 0 .453-.167.804-.502 1.047-.335.243-.831.367-1.484.367h-2.434v-5.296h2.283c.588 0 1.047.12 1.37.357.325.237.486.572.486 1.004 0 .291-.07.54-.216.745-.145.205-.34.356-.593.459v.005zm-2.774-2.1v1.922h1.684c.426 0 .76-.081.993-.248.232-.162.345-.4.345-.713 0-.313-.113-.55-.345-.713-.232-.162-.562-.248-.993-.248h-1.684zm1.867 4.373c.475 0 .831-.081 1.074-.243.243-.162.362-.416.362-.756 0-.659-.48-.993-1.436-.993h-1.867v1.986h1.867v.006zm18.732-.022V70h-3.74v-5.296h3.627v.486h-3.071v1.884h2.736v.475h-2.736v1.965h3.184zm13.027-4.81h.562v4.81h2.962V70h-3.524v-5.296z" fill="#6E502E"/><path fill-rule="evenodd" clip-rule="evenodd" d="M52.4 18.91a8.306 8.306 0 00-1.65-2.823 8.419 8.419 0 00-2.537-1.938c-.027-.01-.049-.027-.075-.038a8.4 8.4 0 00-5.025-.718c-2.639.443-5.499 2.203-5.499 5.204 0 1.02.34 1.965.918 2.721a4.484 4.484 0 007.086.06v7.314a26.928 26.928 0 012.816-1.976v-8.972c.07.07.14.146.21.222.017.016.028.032.039.048.426.492.766 1.047.993 1.658l.059.178c.183.529.28 1.085.297 1.646v.162c0 .615-.097 1.226-.302 1.809l-.157.448v2.148a26.854 26.854 0 012.817-1.333v-.335a8.28 8.28 0 00.453-2.726c0-.081 0-.162-.005-.243a8.432 8.432 0 00-.453-2.489v-.01l.016-.017zm-6.383-2.596a5.587 5.587 0 00-2.445-.135c-1.177.194-3.146.977-3.146 2.418 0 .367.118.718.34 1.01a1.656 1.656 0 002.628.021l2.617-3.314h.006z" fill="#CBB577"/><path fill-rule="evenodd" clip-rule="evenodd" d="M53.896 6.408c4.706 2.035 8.122 6.483 8.689 11.79 0 .016.005.038.005.054a15 15 0 01.076 1.49c0-.502.027-.999.075-1.49 0-.016.006-.038.006-.054.566-5.301 3.982-9.755 8.688-11.79a12.187 12.187 0 011.495 1.986V18.91c0 .006 0 .006-.005.011a8.426 8.426 0 00-.454 2.489c0 .08-.005.162-.005.243 0 .955.162 1.873.453 2.726v.334a27.106 27.106 0 00-3.464-1.139 11.493 11.493 0 01-.162-1.921c0-.108 0-.222.005-.33a11.54 11.54 0 01.448-2.882v-7.25a11.354 11.354 0 00-3.848 7.358c0 .016-.005.027-.005.043-.016.178-.032.356-.043.54a14.489 14.489 0 00-2.127 3.622c-.35-.016-.706-.022-1.063-.022-.356 0-.712.006-1.063.022a14.589 14.589 0 00-2.126-3.622 8.859 8.859 0 00-.043-.54c0-.016-.006-.027-.006-.043a11.366 11.366 0 00-3.847-7.358v7.25a11.586 11.586 0 01.29 5.134 26.83 26.83 0 00-3.464 1.139v-.335c.297-.853.454-1.77.454-2.726 0-.081 0-.162-.006-.243a8.433 8.433 0 00-.453-2.489c0-.005 0-.005-.005-.01V8.393s0-.005.005-.005a12.11 12.11 0 011.49-1.981h.01z" fill="#6E502E"/><path fill-rule="evenodd" clip-rule="evenodd" d="M62.666.005c7.89 0 14.301 6.29 14.533 14.106a8.35 8.35 0 00-2.671 2.046c.07-.523.108-1.063.108-1.608 0-2.252-.62-4.357-1.7-6.155V8.39a11.885 11.885 0 00-1.49-1.981 11.957 11.957 0 00-8.769-3.833 11.917 11.917 0 00-8.77 3.833 11.885 11.885 0 00-1.489 1.981v.005a11.917 11.917 0 00-1.7 6.155c0 .545.038 1.08.108 1.608a8.35 8.35 0 00-2.671-2.046C48.387 6.29 54.792.005 62.688.005h-.022z" fill="#CBB577"/><path fill-rule="evenodd" clip-rule="evenodd" d="M67.426 6.095a9.68 9.68 0 00-4.76-1.247 9.665 9.665 0 00-4.76 1.247 16.923 16.923 0 014.76 5.241 16.805 16.805 0 014.76-5.241z" fill="#6E502E"/><path fill-rule="evenodd" clip-rule="evenodd" d="M72.925 18.91a8.306 8.306 0 011.651-2.823 8.419 8.419 0 012.537-1.938c.027-.01.048-.027.075-.038a8.4 8.4 0 015.024-.718c2.64.443 5.5 2.203 5.5 5.204 0 1.02-.34 1.965-.918 2.721a4.484 4.484 0 01-7.086.06v7.314a26.939 26.939 0 00-2.817-1.976v-8.972c-.07.07-.14.146-.21.222-.016.016-.027.032-.038.048a5.401 5.401 0 00-.993 1.658l-.06.178a5.507 5.507 0 00-.296 1.646v.162c0 .615.097 1.226.302 1.809l.157.448v2.148a26.854 26.854 0 00-2.817-1.333v-.335a8.28 8.28 0 01-.454-2.726c0-.081 0-.162.006-.243.027-.87.183-1.706.453-2.489v-.01l-.016-.017zm6.384-2.596a5.587 5.587 0 012.445-.135c1.176.194 3.146.977 3.146 2.418 0 .367-.119.718-.34 1.01a1.656 1.656 0 01-2.628.021l-2.618-3.314h-.005z" fill="#CBB577"/><path fill-rule="evenodd" clip-rule="evenodd" d="M49.994 37.14c.227.794.27 1.636.135 2.446-.194 1.177-.977 3.147-2.417 3.147a1.66 1.66 0 01-1.01-.34 1.657 1.657 0 01-.021-2.629l3.313-2.618v-.006zm25.343 0a5.594 5.594 0 00-.135 2.446c.195 1.177.977 3.147 2.418 3.147a1.66 1.66 0 001.01-.34 1.657 1.657 0 00.02-2.629l-3.313-2.618v-.006z" fill="#6E502E"/><path fill-rule="evenodd" clip-rule="evenodd" d="M80.534 29.367a27.239 27.239 0 00-17.868-6.65 27.211 27.211 0 00-17.868 6.65 27.806 27.806 0 00-.362 8.13c5.78.723 11.9 1.112 18.23 1.112s12.45-.389 18.23-1.112a27.806 27.806 0 00-.362-8.13zM47.825 31.12a24.304 24.304 0 00-.253 3.428c5.013.524 10.06.772 15.094.772 5.035 0 10.081-.248 15.095-.772a24.244 24.244 0 00-.254-3.428 23.955 23.955 0 00-14.84-5.123 23.955 23.955 0 00-14.842 5.123z" fill="#CBB577"/><path fill-rule="evenodd" clip-rule="evenodd" d="M73.81 28.73a23.873 23.873 0 00-4.577-1.825 24.08 24.08 0 01-6.568.907 24.08 24.08 0 01-6.568-.907 23.874 23.874 0 00-4.576 1.825 27.219 27.219 0 0011.144 2.364 27.32 27.32 0 0011.144-2.364z" fill="#6E502E"/><path d="M85.234 2.024c0 .34-.145.594-.437.767l.583.783h-.658l-.491-.659h-.626v.659h-.578V1.139h1.317a.88.88 0 01.637.26.856.856 0 01.259.625h-.005zm-.895.308a.327.327 0 00.226-.092.299.299 0 000-.443.327.327 0 00-.226-.091h-.734v.62h.734v.006zM82.4.702A2.283 2.283 0 0184.074 0c.653 0 1.215.232 1.679.702.464.464.701 1.025.701 1.679 0 .653-.232 1.214-.701 1.673a2.29 2.29 0 01-1.679.697 2.27 2.27 0 01-1.673-.697 2.28 2.28 0 01-.696-1.673c0-.654.232-1.215.696-1.68zm.276 3.082c.388.389.858.583 1.403.583s1.014-.194 1.403-.583c.388-.388.583-.858.583-1.403a1.92 1.92 0 00-.583-1.404A1.915 1.915 0 0084.08.394c-.545 0-1.015.194-1.403.583a1.916 1.916 0 00-.583 1.404c0 .545.194 1.015.583 1.403z" fill="#6E502E"/></svg>