<svg width="45" height="50" fill="none" xmlns="http://www.w3.org/2000/svg"><path d="M43.978 44.106l-7.343-12.72a1.957 1.957 0 011.04-.632 3.9 3.9 0 002.632-2.114 3.9 3.9 0 00.012-3.375 1.96 1.96 0 01.54-2.369 3.9 3.9 0 001.454-3.046 3.9 3.9 0 00-1.454-3.045 1.96 1.96 0 01-.54-2.369 3.902 3.902 0 00-.012-3.375 3.905 3.905 0 00-2.632-2.114 1.96 1.96 0 01-1.514-1.9 3.9 3.9 0 00-1.476-3.035 3.902 3.902 0 00-3.288-.763 1.96 1.96 0 01-2.188-1.054A3.899 3.899 0 0026.562.1a3.902 3.902 0 00-3.294.74 1.959 1.959 0 01-2.428 0A3.9 3.9 0 0017.547.1 3.902 3.902 0 0014.9 2.195a1.96 1.96 0 01-2.188 1.054 3.902 3.902 0 00-3.289.763 3.905 3.905 0 00-1.475 3.036 1.96 1.96 0 01-1.515 1.9 3.9 3.9 0 00-2.632 2.113 3.902 3.902 0 00-.011 3.375 1.96 1.96 0 01-.54 2.369 3.9 3.9 0 00-1.454 3.046 3.9 3.9 0 001.454 3.045 1.96 1.96 0 01.54 2.369 3.902 3.902 0 00.01 3.375 3.905 3.905 0 002.632 2.114 1.97 1.97 0 011.041.633L.13 44.107a.978.978 0 001.102 1.43l5.115-1.388 1.356 5.123a.975.975 0 001.79.239l6.266-10.854a3.91 3.91 0 001.788.943 3.903 3.903 0 003.294-.74 1.959 1.959 0 012.43 0 3.898 3.898 0 003.292.74 3.91 3.91 0 001.788-.943l6.266 10.855a.977.977 0 001.79-.239l1.355-5.123 5.116 1.388a.976.976 0 001.1-1.432zM8.985 46.484L7.984 42.7a.975.975 0 00-1.2-.692l-3.778 1.024 5.2-9.008a3.917 3.917 0 004.506 2.427 1.959 1.959 0 011.779.496l-5.506 9.537zm17.143-8.787a1.955 1.955 0 01-1.652-.37 3.911 3.911 0 00-4.843 0 1.956 1.956 0 01-1.652.37 1.958 1.958 0 01-1.327-1.05 3.908 3.908 0 00-4.363-2.102 1.955 1.955 0 01-1.65-.383 1.96 1.96 0 01-.74-1.522 3.908 3.908 0 00-3.02-3.787 1.958 1.958 0 01-1.32-1.06 1.957 1.957 0 01-.006-1.694 3.908 3.908 0 00-1.078-4.721 1.956 1.956 0 01-.73-1.529c0-.595.266-1.153.73-1.528A3.908 3.908 0 005.555 13.6a1.957 1.957 0 01.006-1.693c.259-.537.74-.924 1.32-1.06a3.908 3.908 0 003.02-3.787 1.953 1.953 0 01.74-1.522 1.958 1.958 0 011.65-.383 3.908 3.908 0 004.363-2.101 1.958 1.958 0 011.327-1.051 1.956 1.956 0 011.651.37 3.907 3.907 0 004.843 0 1.96 1.96 0 011.652-.37 1.958 1.958 0 011.327 1.05 3.908 3.908 0 004.363 2.102 1.955 1.955 0 011.65.383c.465.372.735.927.74 1.522a3.908 3.908 0 003.02 3.787 1.964 1.964 0 011.326 2.754 3.908 3.908 0 001.078 4.721c.463.375.73.932.73 1.528s-.267 1.154-.73 1.529a3.908 3.908 0 00-1.078 4.721 1.964 1.964 0 01-1.326 2.754 3.908 3.908 0 00-3.02 3.787 1.953 1.953 0 01-.74 1.522 1.958 1.958 0 01-1.65.383 3.907 3.907 0 00-4.363 2.101c-.26.536-.745.918-1.326 1.051zm11.197 4.31a.976.976 0 00-1.2.693l-1.001 3.784-5.506-9.537a1.959 1.959 0 011.78-.496 3.902 3.902 0 003.287-.763 3.898 3.898 0 001.217-1.664l5.2 9.008-3.777-1.024z" fill="#6E502E"/><path d="M26.7 27.235a.978.978 0 00.93-1.275l-1.538-4.786 4.06-2.983a.976.976 0 00-.579-1.762h-5.024l-1.566-4.773a.976.976 0 00-1.855 0L19.56 16.43h-5.023a.976.976 0 00-.578 1.762l4.06 2.983-1.54 4.786a.978.978 0 001.501 1.09l4.074-2.942 4.075 2.943a.97.97 0 00.57.184zm-4.074-5.123a.976.976 0 00-1.143 0l-2.233 1.614.843-2.624a.976.976 0 00-.351-1.085l-2.226-1.636h2.752a.978.978 0 00.928-.672l.86-2.618.859 2.618a.976.976 0 00.928.672h2.751l-2.225 1.636a.976.976 0 00-.352 1.085l.844 2.623-2.235-1.613z" fill="#FBBC3B"/><path d="M35.726 19.85c0-7.538-6.133-13.671-13.672-13.671-7.539 0-13.672 6.132-13.672 13.671 0 5.736 3.622 10.902 9.01 12.856a.977.977 0 00.666-1.836 11.754 11.754 0 01-7.722-11.02c0-6.462 5.256-11.718 11.718-11.718s11.72 5.257 11.72 11.719c0 4.916-3.104 9.344-7.724 11.019a.977.977 0 00.666 1.836c5.39-1.954 9.01-7.121 9.01-12.856z" fill="#FBBC3B"/><path d="M22.054 31.568a.984.984 0 00-.69.286.984.984 0 00-.286.69c0 .258.104.51.286.691a.984.984 0 00.69.286.984.984 0 00.69-.286.984.984 0 00.287-.69.984.984 0 00-.286-.69.984.984 0 00-.69-.287z" fill="#FBBC3B"/></svg>