<svg width="42" height="50" fill="none" xmlns="http://www.w3.org/2000/svg"><path d="M20.508 3.907a.973.973 0 00-.976.976c0 .503.378.92.878.97a.974.974 0 001.073-.97.973.973 0 00-.975-.976z" fill="#6E502E"/><path d="M40.04 5.86A4.888 4.888 0 0135.155.976.977.977 0 0034.18 0H6.836a.977.977 0 00-.977.977A4.888 4.888 0 01.977 5.859.977.977 0 000 6.836v15.936c0 12.42 8.095 23.55 20.227 27.187a.98.98 0 00.561 0c11.87-3.56 20.228-14.495 20.228-27.187V6.837a.977.977 0 00-.977-.977zm-.977 16.912c0 11.666-7.444 21.767-18.555 25.23a26.406 26.406 0 01-18.555-25.23V7.744c2.99-.43 5.36-2.8 5.79-5.79h25.53c.43 2.99 2.8 5.36 5.79 5.79v15.03z" fill="#6E502E"/><path d="M36.524 9.032a8.797 8.797 0 01-4.54-4.54.976.976 0 00-.895-.586h-6.677a.977.977 0 000 1.953h6.06a10.734 10.734 0 004.684 4.685v12.229c0 9.556-5.737 17.802-14.648 21.103-8.911-3.3-14.649-11.547-14.649-21.103v-12.23a10.73 10.73 0 004.685-4.684h6.06a.977.977 0 000-1.953H9.927c-.388 0-.74.23-.895.585a8.797 8.797 0 01-4.54 4.541.976.976 0 00-.586.895v12.846c0 10.47 6.476 19.594 16.276 23.063a.984.984 0 00.652 0c9.792-3.466 16.275-12.585 16.275-23.063V9.927c0-.388-.23-.74-.585-.895z" fill="#6E502E"/><path d="M20.508 14.258c-4.847 0-8.79 3.942-8.79 8.789 0 4.847 3.943 8.789 8.79 8.789 4.847 0 8.789-3.942 8.789-8.79 0-4.846-3.942-8.788-8.79-8.788zm0 15.625a6.843 6.843 0 01-6.836-6.836 6.843 6.843 0 016.836-6.836 6.844 6.844 0 016.836 6.836 6.844 6.844 0 01-6.836 6.836z" fill="#FBBC3B"/><path d="M25.105 20.403a.977.977 0 00-1.381 0l-4.193 4.193-1.262-1.263a.977.977 0 00-1.381 1.38l1.953 1.954a.974.974 0 001.38 0l4.884-4.883c.381-.38.381-1 0-1.38z" fill="#FBBC3B"/></svg>