<svg width="100" height="100" fill="none" xmlns="http://www.w3.org/2000/svg"><path d="M49.188 58.96a.992.992 0 00-.992.993v10.213c0 .548.444.992.992.992h5.753c1.274 0 1.276-1.983 0-1.983h-4.76v-8.23h14.224v8.23H54.044c-1.274 0-1.276 1.983 0 1.983h11.352a.992.992 0 00.992-.992V59.952a.992.992 0 00-.992-.992H49.188zm4.12-1.93a1 1 0 001.295.535.999.999 0 00.536-1.293 1 1 0 00-1.295-.537 1.002 1.002 0 00-.536 1.295zm3.069 0c.208.498.797.742 1.295.535a.999.999 0 00.536-1.293.999.999 0 00-1.295-.537 1 1 0 00-.536 1.295zm3.068 0c.152.366.519.613.915.613.433 0 .821-.292.948-.704.265-.858-.71-1.592-1.466-1.132a1 1 0 00-.397 1.223zm-21.009-1.37h-1.535c-1.273 0-1.275 1.983 0 1.983h1.535c1.274 0 1.276-1.984 0-1.984zm0 6.845h-1.535c-1.273 0-1.275 1.983 0 1.983h1.535c1.274 0 1.276-1.983 0-1.983zm0 6.845h-1.535c-1.273 0-1.275 1.984 0 1.984h1.535c1.274 0 1.276-1.983 0-1.983z" fill="#FBBC3B"/><path d="M72.268 75c1.274 0 1.276-1.983 0-1.983h-1.56v-19.04h1.56c1.274 0 1.276-1.984 0-1.984h-5.88V49.9a.992.992 0 00-.992-.992h-6.293a.992.992 0 00-.992.992v2.093h-1.639V49.9a.992.992 0 00-.992-.992h-6.293a.992.992 0 00-.992.992v2.093h-2.503v-3.082a.992.992 0 00-.992-.992h-5.274v-3.082a.992.992 0 00-.992-.992h-7.867a.992.992 0 00-.992.992v7.155h-1.62c-1.273 0-1.275 1.984 0 1.984h1.62v19.04h-1.62c-1.273 0-1.275 1.983 0 1.983L72.269 75zM60.094 50.892h4.31v1.101h-4.31v-1.101zm-9.915 0h4.31v1.101h-4.31v-1.101zm-6.47 3.085v5.209H31.56v-5.21h12.15zm-12.15 7.192h12.15v4.655H31.56V61.17zm12.15-11.266v2.09h-4.28v-2.09h4.28zm-6.264-.992v3.082H35.41V45.83h2.035v3.081h.001zm-5.886-3.08h1.867v6.162h-1.867V45.83zm0 21.977h12.15v5.209H31.56v-5.21zm14.134-13.831h23.032v19.04H45.693v-19.04zM36.426 36.96c1.273 0 1.275-1.983 0-1.983h-4.869v-7.994h17.62v7.994h-4.874c-1.274 0-1.276 1.984 0 1.984h4.954l-.997 2.602c-.242.631.246 1.346.925 1.346h16.209c.676 0 1.17-.712.925-1.346l-.997-2.602h6.944c1.273 0 1.275-1.983 0-1.983h-1.56v-7.995h1.56c1.273 0 1.275-1.983 0-1.983H27.954c-1.27 0-1.273 1.983 0 1.983h1.62v7.994h-1.428c-1.27 0-1.273 1.984 0 1.984h8.28zm14.734-1.983v-7.994h17.564v7.994H51.16zm12.793 3.949H50.629l.753-1.965h11.817l.754 1.965z" fill="#6E502E"/><path d="M43.155 30.98a.992.992 0 00-.992-.992h-3.589c-1.273 0-1.275 1.984 0 1.984h3.589a.991.991 0 00.992-.992zm14.995.992h3.589c1.274 0 1.275-1.984 0-1.984H58.15c-1.273 0-1.275 1.984 0 1.984z" fill="#FBBC3B"/><path d="M41.193 35.418a.999.999 0 00-1.088-.404 1 1 0 00-.724.882c-.068.876 1.014 1.396 1.658.804.358-.329.419-.877.154-1.282z" fill="#6E502E"/><circle cx="50" cy="50" r="49.5" stroke="#E8E8E8"/><path d="M85 7h-.046A7.977 7.977 0 0077 15a8 8 0 108-8z" fill="#fff"/><path d="M85 7h-.046A7.977 7.977 0 0077 15a8 8 0 108-8zm-1.25 11.477l-3.181-3.159 1.295-1.272 1.886 1.863 4.386-4.386 1.296 1.273-5.682 5.681z" fill="#FBBC3B"/></svg>